<?xml version="1.0" encoding="utf-8"?>
<!-- Generator: Adobe Illustrator 16.0.0, SVG Export Plug-In . SVG Version: 6.00 Build 0)  -->
<!DOCTYPE svg PUBLIC "-//W3C//DTD SVG 1.1//EN" "http://www.w3.org/Graphics/SVG/1.1/DTD/svg11.dtd">
<svg version="1.1" id="Layer_1" xmlns="http://www.w3.org/2000/svg" xmlns:xlink="http://www.w3.org/1999/xlink" x="0px" y="0px"
	 width="261.729px" height="235.453px" viewBox="0 0 261.729 235.453" enable-background="new 0 0 261.729 235.453"
	 xml:space="preserve">
<path fill="#BD688E" d="M34.123,1.457C22.706,8.235,0.214,34.075,0,40.852v11.217c0,14.218,13.291,26.715,25.357,26.715
	c14.489,0,26.563-12.008,26.563-26.261c0,14.253,11.659,26.261,26.148,26.261c14.491,0,25.776-12.008,25.776-26.261
	c0,14.253,12.396,26.261,26.887,26.261h0.264c14.49,0,26.889-12.008,26.889-26.261c0,14.253,11.285,26.261,25.774,26.261
	s26.148-12.008,26.148-26.261c0,14.253,12.074,26.261,26.563,26.261c12.066,0,25.357-12.495,25.357-26.715V40.852
	c-0.214-6.777-22.706-32.619-34.12-39.395C192.125,0.211,167.526-0.005,130.863,0C94.202,0.004,44.22,0.577,34.121,1.457H34.123z
	 M103.663,72.088c-1.387,2.415-3.103,4.625-5.1,6.565c-5.47,5.348-12.968,8.663-21.232,8.663
	c-7.954,0.008-15.594-3.104-21.277-8.667c-1.982-1.941-3.488-4.017-4.867-6.434l-0.007,0.004c-1.378,2.421-3.298,4.496-5.284,6.439
	c-5.687,5.559-13.325,8.668-21.276,8.662c-0.997,0-2.033-0.275-2.872-0.563c-1.165,12.13-1.656,23.723-1.83,32.175l-0.002,0.049
	c-0.021,4.291-0.043,7.821-0.064,12.726c0.226,25.451-2.521,82.489,11.223,96.504c21.295,4.965,60.479,7.228,99.79,7.24h0.008
	c39.311-0.015,78.495-2.275,99.79-7.24c13.741-14.017,10.998-71.055,11.222-96.505c-0.023-4.902-0.043-8.434-0.064-12.727
	l-0.003-0.047c-0.173-8.455-0.664-20.045-1.829-32.177c-0.839,0.288-1.874,0.563-2.87,0.563c-7.953,0.007-15.593-3.102-21.278-8.661
	c-1.986-1.943-3.906-4.017-5.285-6.439l-0.007-0.004c-1.38,2.417-2.885,4.494-4.867,6.434c-5.684,5.563-13.323,8.675-21.276,8.667
	c-8.265,0-15.763-3.317-21.232-8.665c-1.996-1.94-3.713-4.15-5.1-6.565c-1.369,2.413-3.069,4.622-5.051,6.565
	c-5.687,5.562-13.326,8.673-21.279,8.666c-0.288,0-0.576-0.013-0.864-0.021h-0.007c-0.288,0.009-0.576,0.021-0.867,0.021
	c-7.954,0.008-15.595-3.103-21.28-8.665c-1.979-1.943-3.682-4.153-5.052-6.565L103.663,72.088z M81.811,100.344l-0.003,0.011h0.018
	c8.652,0.018,16.341,0,25.865,10.396c7.497-0.786,15.33-1.179,23.17-1.167h0.008c7.84-0.011,15.673,0.381,23.171,1.167
	c9.524-10.396,17.213-10.378,25.865-10.396h0.017l-0.003-0.011c4.089,0,20.443,0,31.841,32.008l12.24,43.908
	c9.07,32.665-2.904,33.465-17.842,33.493c-22.152-0.823-34.418-16.912-34.418-32.997c-12.264,2.01-26.567,3.016-40.872,3.016h-0.008
	c-14.306,0-28.61-1.006-40.872-3.016c0,16.085-12.267,32.174-34.418,32.997c-14.938-0.028-26.911-0.826-17.841-33.493l12.244-43.908
	c11.396-32.006,27.751-32.006,31.84-32.006L81.811,100.344z M130.861,125.498v0.006c-0.021,0.021-23.319,21.42-27.509,29.029
	l15.258-0.611v13.307c0,0.623,6.122,0.369,12.251,0.086h0.008c6.127,0.283,12.25,0.537,12.25-0.086v-13.307l15.258,0.611
	c-4.189-7.609-27.509-29.029-27.509-29.029v-0.006l-0.005,0.002L130.861,125.498z"/>
</svg>
